<svg width="3033" height="1156" viewBox="0 0 3033 1156" fill="none" xmlns="http://www.w3.org/2000/svg">
<path d="M857.54 257.496C866.536 247.205 865.525 231.509 854.755 223.092C782.217 166.4 693.847 133.193 601.516 128.291C500.929 122.951 401.457 151.513 319.027 209.406C236.596 267.299 175.972 351.175 146.861 447.606C117.75 544.037 121.834 647.447 158.46 741.282C195.086 835.117 262.136 913.95 348.876 965.161C435.616 1016.37 537.03 1037 636.883 1023.74C736.737 1010.49 829.255 964.111 899.627 892.041C964.222 825.887 1006.73 741.595 1021.68 650.753C1023.9 637.266 1014.01 625.036 1000.42 623.56C986.835 622.085 974.7 631.924 972.389 645.397C958.692 725.221 921.064 799.233 864.211 857.459C801.579 921.601 719.238 962.876 630.368 974.675C541.499 986.473 451.241 968.114 374.042 922.536C296.843 876.958 237.169 806.796 204.572 723.284C171.975 639.771 168.34 547.736 194.249 461.912C220.158 376.088 274.113 301.439 347.476 249.914C420.84 198.389 509.369 172.969 598.892 177.722C680.156 182.036 757.973 210.987 822.125 260.426C832.952 268.769 848.543 267.787 857.54 257.496Z" fill="white"/>
<path d="M1002.67 591.761C1016.34 592.214 1027.85 581.501 1027.55 567.835C1026.39 514.853 1015.89 462.423 996.445 412.983C977.004 363.544 948.988 317.999 913.747 278.419C904.657 268.21 888.93 268.208 879.236 277.845C869.543 287.482 869.561 303.104 878.581 313.374C909.098 348.122 933.409 387.943 950.378 431.098C967.348 474.252 976.671 519.966 977.994 566.194C978.386 579.857 989.013 591.308 1002.67 591.761Z" fill="#FEA347"/>
<path d="M791.442 329.89C799.65 320.378 798.634 305.946 788.609 298.373C732.419 255.93 664.566 231.312 593.872 228.034C515.583 224.403 438.34 247.154 374.518 292.642C310.697 338.13 263.989 403.723 241.877 478.912C219.765 554.101 223.53 634.537 252.567 707.332C281.604 780.128 334.233 841.072 402.024 880.4C469.816 919.729 548.845 935.167 626.453 924.24C704.061 913.314 775.756 876.656 830.053 820.139C879.083 769.105 911.364 704.544 922.916 635.081C924.977 622.687 915.782 611.518 903.28 610.266C890.778 609.014 879.715 618.158 877.533 630.532C867.074 689.855 839.211 744.932 797.242 788.616C750.003 837.786 687.629 869.679 620.11 879.185C552.591 888.691 483.835 875.26 424.857 841.044C365.879 806.828 320.091 753.807 294.829 690.475C269.566 627.142 266.291 557.164 285.529 491.749C304.766 426.334 345.402 369.269 400.927 329.694C456.452 290.12 523.652 270.327 591.764 273.485C652.278 276.291 710.399 297.07 758.816 332.909C768.915 340.384 783.234 339.403 791.442 329.89Z" fill="white"/>
<path d="M904.904 579.427C917.468 579.495 927.785 569.352 927.038 556.81C922.532 481.254 893.636 409.165 844.707 351.416C836.585 341.83 822.118 341.622 813.079 350.349C804.04 359.076 803.862 373.428 811.891 383.092C852.677 432.19 877.01 492.894 881.428 556.57C882.298 569.105 892.339 579.359 904.904 579.427Z" fill="#FEA347"/>
<path d="M724.221 403.659C732.226 394.155 731.063 379.866 720.878 372.748C681.377 345.139 634.587 329.439 586.102 327.801C530.096 325.908 475.077 342.887 429.878 376.013C384.678 409.138 351.919 456.49 336.857 510.466C321.796 564.443 325.306 621.915 346.825 673.657C368.343 725.399 406.622 768.412 455.517 795.79C504.412 823.169 561.088 833.325 616.448 824.631C671.808 815.936 722.641 788.893 760.789 747.844C793.813 712.308 815.673 668.058 823.946 620.581C826.08 608.339 816.768 597.44 804.384 596.415C792 595.391 781.255 604.64 778.88 616.838C771.594 654.259 753.98 689.067 727.826 717.21C696.544 750.871 654.861 773.046 609.466 780.176C564.071 787.305 517.597 778.977 477.503 756.526C437.409 734.076 406.02 698.806 388.375 656.377C370.73 613.948 367.851 566.822 380.201 522.561C392.552 478.3 419.415 439.472 456.478 412.309C493.542 385.146 538.657 371.223 584.583 372.775C622.981 374.073 660.083 386.126 691.756 407.344C702.08 414.261 716.215 413.163 724.221 403.659Z" fill="white"/>
<path d="M804.897 566.759C817.309 566.164 826.993 555.593 825.284 543.285C819.486 501.508 803.205 461.865 777.968 428.071C770.532 418.115 756.215 417.401 746.967 425.701C737.719 434.001 737.066 448.164 744.303 458.265C762.851 484.153 775.115 514.015 780.115 545.466C782.067 557.739 792.485 567.354 804.897 566.759Z" fill="#FEA347"/>
<circle cx="577.659" cy="577.659" r="150" transform="rotate(-20.1898 577.659 577.659)" fill="#FEA347"/>
<path d="M1100.25 277.308L1174.17 487.518L1247.32 277.308H1303.15L1199.58 550.658H1148.38L1044.43 277.308H1100.25ZM1438.45 552.583C1418.43 552.583 1400.21 548.733 1383.78 541.033C1367.61 533.333 1353.62 522.938 1341.82 509.848C1330.27 496.502 1321.28 481.615 1314.87 465.188C1308.45 448.505 1305.24 431.437 1305.24 413.983C1305.24 395.76 1308.58 378.435 1315.25 362.008C1322.18 345.325 1331.55 330.567 1343.36 317.733C1355.42 304.643 1369.54 294.377 1385.71 286.933C1402.13 279.233 1420.1 275.383 1439.61 275.383C1459.37 275.383 1477.34 279.362 1493.51 287.318C1509.93 295.275 1523.92 305.927 1535.47 319.273C1547.02 332.62 1556.01 347.507 1562.42 363.933C1568.84 380.36 1572.05 397.3 1572.05 414.753C1572.05 432.72 1568.71 450.045 1562.04 466.728C1555.36 483.155 1546 497.913 1533.93 511.003C1522.13 523.837 1508.01 533.975 1491.58 541.418C1475.41 548.862 1457.7 552.583 1438.45 552.583ZM1359.14 413.983C1359.14 425.79 1360.94 437.212 1364.53 448.248C1368.13 459.285 1373.26 469.167 1379.93 477.893C1386.86 486.363 1395.2 493.165 1404.96 498.298C1414.97 503.175 1426.26 505.613 1438.84 505.613C1451.67 505.613 1463.09 503.047 1473.1 497.913C1483.11 492.523 1491.45 485.465 1498.13 476.738C1504.8 467.755 1509.81 457.873 1513.14 447.093C1516.74 436.057 1518.53 425.02 1518.53 413.983C1518.53 402.177 1516.61 390.883 1512.76 380.103C1509.16 369.067 1503.9 359.313 1496.97 350.843C1490.3 342.117 1481.96 335.315 1471.95 330.438C1462.19 325.305 1451.16 322.738 1438.84 322.738C1425.75 322.738 1414.2 325.433 1404.19 330.823C1394.43 335.957 1386.22 342.887 1379.55 351.613C1372.87 360.34 1367.74 370.093 1364.15 380.873C1360.81 391.653 1359.14 402.69 1359.14 413.983ZM1628.13 277.308L1695.89 378.178L1763.27 277.308H1821.02L1726.31 415.908L1817.94 550.658H1760.19L1695.89 453.638L1631.21 550.658H1573.08L1664.71 415.908L1570 277.308H1628.13ZM1162.62 603.308H1185.34L1298.91 876.658H1270.42L1235 791.188H1112.19L1077.15 876.658H1048.28L1162.62 603.308ZM1228.84 770.013L1173.79 634.878L1117.96 770.013H1228.84ZM1365.05 652.973V876.658H1338.1V603.308H1360.43L1539.84 831.228V603.693H1566.79V876.658H1541.76L1365.05 652.973ZM1720.2 603.308H1742.91L1856.49 876.658H1828L1792.58 791.188H1669.76L1634.73 876.658H1605.85L1720.2 603.308ZM1786.42 770.013L1731.36 634.878L1675.54 770.013H1786.42ZM1895.67 876.658V603.308H1922.62V852.788H2080.47V876.658H1895.67ZM2120.13 876.658V603.308H2147.08V876.658H2120.13ZM2409.67 627.178H2312.26V876.658H2285.31V627.178H2187.91V603.308H2409.67V627.178ZM2450.61 876.658V603.308H2477.56V876.658H2450.61ZM2528.02 738.058C2528.02 721.375 2530.84 705.077 2536.49 689.163C2542.39 672.993 2550.86 658.363 2561.9 645.273C2572.93 631.927 2586.54 621.403 2602.71 613.703C2618.88 605.747 2637.23 601.768 2657.76 601.768C2682.15 601.768 2702.94 607.415 2720.13 618.708C2737.59 629.745 2750.42 643.99 2758.63 661.443L2737.46 674.533C2731.55 662.47 2724.11 652.973 2715.13 646.043C2706.14 638.857 2696.52 633.723 2686.25 630.643C2676.24 627.563 2666.23 626.023 2656.22 626.023C2639.8 626.023 2625.29 629.36 2612.72 636.033C2600.14 642.45 2589.49 651.177 2580.76 662.213C2572.29 672.993 2565.88 685.185 2561.51 698.788C2557.15 712.135 2554.97 725.738 2554.97 739.598C2554.97 754.742 2557.53 769.243 2562.67 783.103C2567.8 796.963 2574.99 809.283 2584.23 820.063C2593.47 830.587 2604.25 839.057 2616.57 845.473C2629.14 851.633 2642.75 854.713 2657.38 854.713C2667.64 854.713 2678.17 852.917 2688.95 849.323C2699.73 845.73 2709.74 840.212 2718.98 832.768C2728.47 825.325 2736.05 815.7 2741.69 803.893L2764.02 815.443C2758.38 829.047 2749.65 840.597 2737.84 850.093C2726.04 859.59 2712.82 866.777 2698.19 871.653C2683.81 876.53 2669.7 878.968 2655.84 878.968C2637.1 878.968 2619.9 874.99 2604.25 867.033C2588.59 858.82 2574.99 848.04 2563.44 834.693C2552.14 821.09 2543.42 805.947 2537.26 789.263C2531.1 772.323 2528.02 755.255 2528.02 738.058ZM2890.99 603.308H2913.7L3027.28 876.658H2998.79L2963.37 791.188H2840.55L2805.52 876.658H2776.64L2890.99 603.308ZM2957.21 770.013L2902.15 634.878L2846.33 770.013H2957.21Z" fill="white"/>
</svg>
